<svg xmlns="http://www.w3.org/2000/svg" xmlns:xlink="http://www.w3.org/1999/xlink" width="187" height="204" viewBox="0 0 187 204">
    <defs>
        <linearGradient id="b" x1="0%" y1="100%" y2="0%">
            <stop offset="0%" stop-color="#17A77B"/>
            <stop offset="100%" stop-color="#74C947"/>
        </linearGradient>
        <path id="a" d="M56.698 9.755c-3.84 2.806-9.843-.113-9.843-.113-9.868-3.212-17.127-1.455-22.193 1.588-6.847 4.113-9.705 12.445-7.755 20.198.774 3.076.733 5.973-3.087 8.817C8.568 44.155.847 44.517.05 52.481c-.41 4.104 1.695 7.79 4.54 10.583 2.567 2.523 5.704 4.438 8.9 6.05 2.432 1.228 4.882 2.442 7.444 3.377 2.629.957 5.47 1.245 8.054 2.295 1.035.422 1.993 1.455 1.735 2.545-.186.785-.922 1.298-1.624 1.694-6.61 3.73-16.082 2.443-20.83 9.269-6.477 9.308.243 19.976 10.01 22.84 3.615 1.06 11.72 1.498 12.864 6.097.939 3.783-11.176 10.158-13.608 13.289-4.348 5.598-4.414 11.784 1.696 16.114 4.364 3.093 9.6 2.637 14.782 2.18 5.616-.493 11.172-.987 15.497 3.03.864.802 1.56 1.803 1.936 2.921 2.265 6.75-4.41 10.93-5.387 16.933-.77 4.727 1 9.18 4.945 11.947 8.362 5.86 19.476 6.4 29.226 5.107 6.385-.848 15.785-2.937 20.48 2.962 1.216 1.53 2.039 3.327 2.893 5.084 4.325 8.885 16.196 6.908 28.456 4.93 7.6-1.224 15.348-2.45 21.544-1.09 10.956 2.406 13.812-3.133 14.468-7.305 1.23-7.807 4.325-15.203 8.29-22.037 6.275-10.817 12.511-21.347 4.979-27.278-1.843-1.452-3.803-2.785-5.378-4.524-6.023-6.646-.903-15.563 2.2-22.273 4.13-8.932 6.923-19.71 3.836-29.436-1.456-4.589-5.164-7.6-9.888-8.266-2.35-.33-4.691.255-7.017.841-3.615.91-7.19 1.822-10.686-.712-.953-.69-1.698-1.654-2.204-2.716-4.873-10.236 7.475-19.877 4.052-30.473-2.3-7.121-8.202-8.89-14.818-6.397-2.794 1.054-5.232 3.453-7.616 5.185-2.005 1.455-6.536 5.43-9.204 3.782-.756-.466-1.275-1.243-1.63-2.06-1.64-3.77-.276-8.02-.207-11.943.195-10.839-9.8-20.996-20.711-15.436C95.377 23 94.106 31.27 88.52 35.886c-1.389 1.148-3.065 1.114-3.697-.869-.716-2.25.2-5.454.216-7.796.04-6.273-.88-13.148-3.577-18.864-1.796-3.81-4.746-7.252-9.033-8.13A10.583 10.583 0 0 0 70.301 0c-6.216 0-8.834 6.269-13.603 9.755"/>
    </defs>
    <g fill="none" fill-rule="evenodd" transform="rotate(179 93.073 101.783)">
        <mask id="c" fill="#fff">
            <use xlink:href="#a"/>
        </mask>
        <use fill="url(#b)" xlink:href="#a"/>
        <path stroke="#9FE1B7" stroke-width=".885" d="M118.898 20.055l-10.027 103.14M146.116 25.785l-14.325 126.06M95.978-7.163L87.383 94.545M70.193-37.245l-8.595 97.41M50.138-64.463l-8.595 97.41M164.738 45.84l-12.892 134.656M7.163 103.14l101.708 20.056M5.73 131.79l126.06 21.488M-11.46 74.49l98.843 20.055" mask="url(#c)" opacity=".5"/>
        <path stroke="#9FE1B7" stroke-linecap="square" d="M26.118 11.792L167.27 200.219" mask="url(#c)" opacity=".5"/>
        <path stroke="#9FE1B7" stroke-width=".885" d="M-32.948 41.543L63.03 60.165M-54.435 14.325l95.978 18.623M18.623 156.143l133.223 25.785M180.496 134.656l-7.163 75.923M94.545 194.821l78.788 14.325" mask="url(#c)" opacity=".5"/>
    </g>
</svg>
