<?xml version="1.0" encoding="UTF-8"?>
<svg width="171px" height="199px" viewBox="0 0 171 199" version="1.1" xmlns="http://www.w3.org/2000/svg" xmlns:xlink="http://www.w3.org/1999/xlink">
    <!-- Generator: Sketch 50 (54983) - http://www.bohemiancoding.com/sketch -->
    <title>bottom leaves</title>
    <desc>Created with Sketch.</desc>
    <defs>
        <path d="M0.759,0.402 C0.759,0.402 0.76,0.402 0.761,0.402 C0.761,0.402 0.76,0.401 0.76,0.401 C0.759,0.401 0.759,0.401 0.759,0.402 Z M18.431,86.796 C35.153,135.774 67.312,184.75 128.692,170.768 C188.866,63.766 1.539,0.664 0.761,0.402 C0.96,0.648 3.725,43.723 18.431,86.796 Z" id="path-1"></path>
        <path d="M0.759,0.402 C0.759,0.402 0.759,0.402 0.76,0.402 C0.76,0.402 0.76,0.402 0.761,0.403 C0.76,0.402 0.759,0.402 0.759,0.402 Z M18.431,86.796 C3.726,43.724 0.959,0.648 0.761,0.403 C1.539,0.664 188.865,63.767 128.692,170.768 C67.312,184.75 35.153,135.774 18.431,86.796 Z" id="path-3"></path>
        <path d="M50.577,7.39 C50.363,9.291 50.604,11.594 50.324,13.433 C49.914,16.125 47.987,16.953 45.393,16.508 C37.985,15.239 31.362,11.752 24.273,9.447 C24.273,9.447 4.885,3.146 1.203,14.429 C0.836,15.551 0.605,16.712 0.521,17.873 L0.519,17.916 C0.308,20.997 1.147,24.081 3.32,26.456 C5.421,28.753 8.28,30.217 11.194,31.323 C16.215,33.228 41.495,41.159 34.117,50.402 C33.733,50.885 33.26,51.37 32.692,51.856 C30.895,53.396 28.585,54.178 26.526,55.346 C24.352,56.578 22.414,58.299 21.192,60.474 C19.971,62.651 19.516,65.307 20.234,67.697 C23.353,78.09 40.11,78.048 48.46,77.462 C54.63,77.03 60.596,75.238 66.82,75.5 C67.846,75.543 68.895,75.634 69.822,76.076 C73.285,77.72 70.945,81.026 68.823,82.749 C64.072,86.604 56.418,93.135 60.957,99.944 C61.988,101.488 64.451,102.415 66.113,102.903 C70.612,104.227 74.872,103.198 79.292,101.993 C84.933,100.455 90.492,98.385 95.6,95.524 C98.239,94.045 100.759,92.354 103.042,90.367 C104.281,89.289 106.403,87.049 108.202,87 C111.222,86.924 104.998,93.755 104.627,94.715 C103.741,97.007 105.001,99.262 107.303,99.996 C109.667,100.749 112.063,100.258 114.453,99.768 C116.482,99.351 118.509,98.934 120.515,99.278 C121.125,99.383 121.79,99.564 122.129,100.083 C122.347,100.414 122.389,100.828 122.45,101.221 C124.186,112.172 139.207,106.007 145.579,103.442 C149.974,101.669 155.04,98.755 156.194,93.778 C156.541,92.274 156.764,90.749 156.881,89.212 L156.911,88.789 C157.224,83.873 156.488,78.851 155.397,74.106 C154.232,69.046 153.079,58.741 146.136,58.441 C142.569,58.286 141.815,62.386 139.203,62.421 C134.19,62.482 137.787,52.877 137.734,50.575 C137.63,45.944 134.915,42.442 130.442,41.134 C126.857,40.084 123.054,41.401 121.758,45.05 C121.333,46.248 121.09,47.511 120.559,48.667 C120.127,49.611 119.375,50.549 118.338,50.642 C115.445,50.901 116.158,45.512 116.011,43.895 C115.733,40.858 115.344,37.829 114.767,34.833 C113.52,28.36 111.465,21.195 106.629,16.426 C104.913,14.734 102.842,13.434 100.515,12.769 C98.889,12.307 96.868,13.019 95.519,13.875 C93.798,14.966 92.557,16.668 91.642,18.457 C90.517,20.651 90.606,23.713 88.534,25.359 C87.767,25.967 86.69,26.25 85.776,25.895 C85.167,25.656 84.689,25.168 84.29,24.65 C82.62,22.469 81.604,19.734 80.124,17.403 C78.514,14.867 76.734,12.435 74.712,10.209 C70.772,5.871 65.89,2.318 60.209,0.67 C59.573,0.486 58.953,0.376 58.354,0.334 C58.168,0.321 57.984,0.314 57.803,0.314 C53.948,0.314 51.052,3.202 50.577,7.39 Z" id="path-5"></path>
        <path d="M50.577,7.39 C51.053,3.202 53.947,0.314 57.803,0.314 C57.984,0.314 58.168,0.321 58.354,0.334 C58.953,0.376 59.573,0.486 60.209,0.67 C65.89,2.318 70.772,5.871 74.712,10.209 C76.734,12.435 78.514,14.867 80.124,17.403 C81.604,19.734 82.62,22.469 84.29,24.65 C84.689,25.168 85.167,25.656 85.776,25.895 C86.69,26.25 87.767,25.967 88.534,25.359 C90.606,23.713 90.517,20.651 91.642,18.457 C92.557,16.668 93.798,14.966 95.519,13.875 C96.868,13.019 98.889,12.307 100.515,12.769 C102.842,13.434 104.913,14.734 106.629,16.426 C111.465,21.195 113.52,28.36 114.767,34.833 C115.344,37.829 115.733,40.858 116.011,43.895 C116.158,45.512 115.445,50.901 118.338,50.642 C119.375,50.549 120.127,49.611 120.559,48.667 C121.09,47.511 121.333,46.248 121.758,45.05 C123.054,41.401 126.857,40.084 130.442,41.134 C134.915,42.442 137.63,45.944 137.734,50.575 C137.787,52.877 134.19,62.482 139.203,62.421 C141.815,62.386 142.569,58.286 146.136,58.441 C153.079,58.741 154.232,69.046 155.397,74.106 C156.488,78.851 157.224,83.873 156.911,88.789 L156.881,89.212 C156.764,90.749 156.541,92.274 156.194,93.778 C155.04,98.755 149.974,101.669 145.579,103.442 C139.207,106.007 124.186,112.172 122.45,101.221 C122.389,100.828 122.347,100.414 122.129,100.083 C121.79,99.564 121.125,99.383 120.515,99.278 C118.509,98.934 116.482,99.351 114.453,99.768 C112.063,100.258 109.667,100.749 107.303,99.996 C105.001,99.262 103.741,97.007 104.627,94.715 C104.998,93.755 111.222,86.924 108.202,87 C106.403,87.049 104.281,89.289 103.042,90.367 C100.759,92.354 98.239,94.045 95.6,95.524 C90.492,98.385 84.933,100.455 79.292,101.993 C74.872,103.198 70.612,104.227 66.113,102.903 C64.451,102.415 61.988,101.488 60.957,99.944 C56.418,93.135 64.072,86.604 68.823,82.749 C70.945,81.026 73.285,77.72 69.822,76.076 C68.895,75.634 67.846,75.543 66.82,75.5 C60.596,75.238 54.63,77.03 48.46,77.462 C40.11,78.048 23.353,78.09 20.234,67.697 C19.516,65.307 19.971,62.651 21.192,60.474 C22.414,58.299 24.352,56.578 26.526,55.346 C28.585,54.178 30.895,53.396 32.692,51.856 C33.26,51.37 33.733,50.885 34.117,50.402 C41.495,41.159 16.215,33.228 11.194,31.323 C8.28,30.217 5.421,28.753 3.32,26.456 C1.147,24.081 0.308,20.997 0.519,17.916 L0.521,17.873 C0.605,16.712 0.836,15.551 1.203,14.429 C4.885,3.146 24.273,9.447 24.273,9.447 C31.362,11.752 37.985,15.239 45.393,16.508 C47.987,16.953 49.914,16.125 50.324,13.433 C50.604,11.594 50.363,9.291 50.577,7.39 Z" id="path-7"></path>
    </defs>
    <g id="Final" stroke="none" stroke-width="1" fill="none" fill-rule="evenodd">
        <g id="bottom-leaves">
            <g id="Group-3-Copy" transform="translate(30.000000, 0.000000)">
                <mask id="mask-2" fill="white">
                    <use xlink:href="#path-1"></use>
                </mask>
                <g id="Clip-2"></g>
                <polygon id="Fill-1" fill="#6BA981" mask="url(#mask-2)" points="-29.513 198.5 140.604 198.5 140.604 0.4 -29.513 0.4"></polygon>
            </g>
            <g id="Group-6-Copy" transform="translate(30.000000, 0.000000)">
                <mask id="mask-4" fill="white">
                    <use xlink:href="#path-3"></use>
                </mask>
                <g id="Clip-5"></g>
                <polygon id="Fill-4" fill="#9FE1B7" opacity="0.5" mask="url(#mask-4)" points="119.0536 156.0908 131.1236 28.1468 130.2426 28.0638 118.2636 155.0448 98.5286 128.9098 111.8006 9.4648 110.9206 9.3668 97.7526 127.8818 77.1476 100.5938 86.8136 2.7218 85.9326 2.6348 76.3616 99.5518 56.8786 73.7508 64.1366 -21.8242 63.2546 -21.8912 56.0716 72.6818 33.0906 42.2468 41.5196 -49.2772 40.6386 -49.3582 32.2986 41.1988 13.3316 16.0798 21.7736 -75.5712 20.8926 -75.6522 12.5396 15.0308 -2.7974 -5.2792 -3.5944 -4.6772 11.8306 15.7518 -77.6814 -2.1512 -77.8554 -1.2832 12.6336 16.8148 31.6426 41.9888 -58.0764 24.0448 -58.2504 24.9128 32.4456 43.0518 55.3926 73.4418 -37.9114 54.3028 -38.0894 55.1708 56.1996 74.5108 75.4426 99.9948 -19.7604 82.1438 -19.9234 83.0138 76.2346 101.0438 97.1006 128.6778 -20.6064 108.2588 -20.7584 109.1318 97.8736 129.7108 97.8746 129.7028 117.6796 155.9318 -8.2224 131.9498 -8.3884 132.8198 118.4746 156.9838 131.0746 173.6708 131.3756 174.0688 132.1736 173.4658"></polygon>
            </g>
            <g id="Group-9-Copy" transform="translate(0.000000, 91.000000)">
                <mask id="mask-6" fill="white">
                    <use xlink:href="#path-5"></use>
                </mask>
                <g id="Clip-8"></g>
                <polygon id="Fill-7" fill="#9FE1B7" mask="url(#mask-6)" points="0 107.5 170.604 107.5 170.604 -1.266 0 -1.266"></polygon>
            </g>
            <g id="Group-12-Copy" transform="translate(0.000000, 91.000000)">
                <mask id="mask-8" fill="white">
                    <use xlink:href="#path-7"></use>
                </mask>
                <g id="Clip-11"></g>
                <path d="M159.1849,96.9995 C154.6449,93.7685 150.0499,90.6075 145.4239,87.4925 L110.0529,-11.2425 L109.2199,-10.9435 L144.1829,86.6515 C137.1199,81.9185 129.9639,77.3295 122.7349,72.8865 L91.0349,-20.8285 L90.1969,-20.5445 L121.5589,72.1665 C114.0139,67.5515 106.3979,63.0905 98.7209,58.8205 L71.4789,-16.7255 L70.6459,-16.4255 L97.5479,58.1785 C95.2999,56.9335 93.0519,55.6905 90.7949,54.4785 C84.6109,51.1545 77.8869,47.6785 70.6679,44.0675 L43.3379,-28.8205 L42.5089,-28.5105 L69.5049,43.4885 C61.3099,39.4025 52.4759,35.1415 43.0109,30.7115 L16.6899,-40.0215 L15.8609,-39.7125 L41.8689,30.1795 C34.6209,26.7945 27.0309,23.3185 19.0709,19.7465 L-7.0811,-50.5335 L-7.9101,-50.2255 L17.9389,19.2415 C11.7389,16.4635 5.3399,13.6335 -1.2781,10.7485 L-1.7361,10.5485 L-2.1361,11.4655 L-1.6771,11.6655 C5.0369,14.5935 11.5289,17.4635 17.8129,20.2805 L-53.8821,37.9165 L-53.6711,38.7765 L19.1259,20.8685 C26.8119,24.3205 34.1519,27.6815 41.1709,30.9575 L-30.5251,48.5935 L-30.3151,49.4535 L42.4499,31.5535 C51.9689,36.0075 60.8519,40.2915 69.0859,44.3965 L-5.4341,61.9965 L-5.2311,62.8575 L70.3249,45.0135 C77.4959,48.6025 84.1749,52.0555 90.3209,55.3585 C92.7119,56.6435 95.0939,57.9575 97.4749,59.2775 L20.6139,77.9275 L20.8229,78.7885 L98.6269,59.9095 C106.1789,64.1165 113.6699,68.5125 121.0929,73.0545 L27.5459,98.1695 L27.7749,99.0245 L122.1339,73.6905 C129.4459,78.1845 136.6839,82.8275 143.8269,87.6185 L43.4919,113.1775 L43.7109,114.0345 L144.8069,88.2815 C149.4449,91.4055 154.0529,94.5745 158.6049,97.8135 L159.0119,98.1035 L159.5919,97.2895 L159.1849,96.9995 Z" id="Fill-10" fill="#CDFCDE" opacity="0.5" mask="url(#mask-8)"></path>
            </g>
        </g>
    </g>
</svg>